<svg id="visual" viewBox="0 0 960 100" width="960" height="100" xmlns="http://www.w3.org/2000/svg" xmlns:xlink="http://www.w3.org/1999/xlink" version="1.1"><path d="M0 73L26.7 71.7C53.3 70.3 106.7 67.7 160 58.2C213.3 48.7 266.7 32.3 320 34.5C373.3 36.7 426.7 57.3 480 65.5C533.3 73.7 586.7 69.3 640 72.5C693.3 75.7 746.7 86.3 800 77.7C853.3 69 906.7 41 933.3 27L960 13L960 0L933.3 0C906.7 0 853.3 0 800 0C746.7 0 693.3 0 640 0C586.7 0 533.3 0 480 0C426.7 0 373.3 0 320 0C266.7 0 213.3 0 160 0C106.7 0 53.3 0 26.7 0L0 0Z" fill="#c1d790"></path><path d="M0 2L26.7 9.8C53.3 17.7 106.7 33.3 160 47.5C213.3 61.7 266.7 74.3 320 81.3C373.3 88.3 426.7 89.7 480 89.5C533.3 89.3 586.7 87.7 640 75.8C693.3 64 746.7 42 800 38C853.3 34 906.7 48 933.3 55L960 62L960 0L933.3 0C906.7 0 853.3 0 800 0C746.7 0 693.3 0 640 0C586.7 0 533.3 0 480 0C426.7 0 373.3 0 320 0C266.7 0 213.3 0 160 0C106.7 0 53.3 0 26.7 0L0 0Z" fill="#c4d994"></path><path d="M0 9L26.7 11C53.3 13 106.7 17 160 17.2C213.3 17.3 266.7 13.7 320 22.7C373.3 31.7 426.7 53.3 480 57.3C533.3 61.3 586.7 47.7 640 35.2C693.3 22.7 746.7 11.3 800 14.3C853.3 17.3 906.7 34.7 933.3 43.3L960 52L960 0L933.3 0C906.7 0 853.3 0 800 0C746.7 0 693.3 0 640 0C586.7 0 533.3 0 480 0C426.7 0 373.3 0 320 0C266.7 0 213.3 0 160 0C106.7 0 53.3 0 26.7 0L0 0Z" fill="#c6db97"></path><path d="M0 68L26.7 68.5C53.3 69 106.7 70 160 71C213.3 72 266.7 73 320 65.3C373.3 57.7 426.7 41.3 480 38.8C533.3 36.3 586.7 47.7 640 49.8C693.3 52 746.7 45 800 47.7C853.3 50.3 906.7 62.7 933.3 68.8L960 75L960 0L933.3 0C906.7 0 853.3 0 800 0C746.7 0 693.3 0 640 0C586.7 0 533.3 0 480 0C426.7 0 373.3 0 320 0C266.7 0 213.3 0 160 0C106.7 0 53.3 0 26.7 0L0 0Z" fill="#c9de9b"></path><path d="M0 43L26.7 44C53.3 45 106.7 47 160 43.2C213.3 39.3 266.7 29.7 320 28.7C373.3 27.7 426.7 35.3 480 43C533.3 50.7 586.7 58.3 640 51.3C693.3 44.3 746.7 22.7 800 17.8C853.3 13 906.7 25 933.3 31L960 37L960 0L933.3 0C906.7 0 853.3 0 800 0C746.7 0 693.3 0 640 0C586.7 0 533.3 0 480 0C426.7 0 373.3 0 320 0C266.7 0 213.3 0 160 0C106.7 0 53.3 0 26.7 0L0 0Z" fill="#cce09f"></path><path d="M0 18L26.7 22.8C53.3 27.7 106.7 37.3 160 41.2C213.3 45 266.7 43 320 42.3C373.3 41.7 426.7 42.3 480 37.2C533.3 32 586.7 21 640 21.5C693.3 22 746.7 34 800 32.3C853.3 30.7 906.7 15.3 933.3 7.7L960 0L960 0L933.3 0C906.7 0 853.3 0 800 0C746.7 0 693.3 0 640 0C586.7 0 533.3 0 480 0C426.7 0 373.3 0 320 0C266.7 0 213.3 0 160 0C106.7 0 53.3 0 26.7 0L0 0Z" fill="#cfe2a2"></path><path d="M0 6L26.7 10.2C53.3 14.3 106.7 22.7 160 22.8C213.3 23 266.7 15 320 14.7C373.3 14.3 426.7 21.7 480 26C533.3 30.3 586.7 31.7 640 32.2C693.3 32.7 746.7 32.3 800 26.8C853.3 21.3 906.7 10.7 933.3 5.3L960 0L960 0L933.3 0C906.7 0 853.3 0 800 0C746.7 0 693.3 0 640 0C586.7 0 533.3 0 480 0C426.7 0 373.3 0 320 0C266.7 0 213.3 0 160 0C106.7 0 53.3 0 26.7 0L0 0Z" fill="#d1e4a6"></path><path d="M0 1L26.7 7.7C53.3 14.3 106.7 27.7 160 29C213.3 30.3 266.7 19.7 320 13.8C373.3 8 426.7 7 480 8.8C533.3 10.7 586.7 15.3 640 21C693.3 26.7 746.7 33.3 800 35C853.3 36.7 906.7 33.3 933.3 31.7L960 30L960 0L933.3 0C906.7 0 853.3 0 800 0C746.7 0 693.3 0 640 0C586.7 0 533.3 0 480 0C426.7 0 373.3 0 320 0C266.7 0 213.3 0 160 0C106.7 0 53.3 0 26.7 0L0 0Z" fill="#d4e6aa"></path><path d="M0 31L26.7 29C53.3 27 106.7 23 160 19.2C213.3 15.3 266.7 11.7 320 8.7C373.3 5.7 426.7 3.3 480 4.5C533.3 5.7 586.7 10.3 640 12.2C693.3 14 746.7 13 800 15C853.3 17 906.7 22 933.3 24.5L960 27L960 0L933.3 0C906.7 0 853.3 0 800 0C746.7 0 693.3 0 640 0C586.7 0 533.3 0 480 0C426.7 0 373.3 0 320 0C266.7 0 213.3 0 160 0C106.7 0 53.3 0 26.7 0L0 0Z" fill="#d7e8ae"></path><path d="M0 17L26.7 16.7C53.3 16.3 106.7 15.7 160 16.3C213.3 17 266.7 19 320 18.7C373.3 18.3 426.7 15.7 480 14.7C533.3 13.7 586.7 14.3 640 13C693.3 11.7 746.7 8.3 800 6.5C853.3 4.7 906.7 4.3 933.3 4.2L960 4L960 0L933.3 0C906.7 0 853.3 0 800 0C746.7 0 693.3 0 640 0C586.7 0 533.3 0 480 0C426.7 0 373.3 0 320 0C266.7 0 213.3 0 160 0C106.7 0 53.3 0 26.7 0L0 0Z" fill="#daebb1"></path><path d="M0 7L26.7 8.5C53.3 10 106.7 13 160 12C213.3 11 266.7 6 320 4.7C373.3 3.3 426.7 5.7 480 7.3C533.3 9 586.7 10 640 10.8C693.3 11.7 746.7 12.3 800 11C853.3 9.7 906.7 6.3 933.3 4.7L960 3L960 0L933.3 0C906.7 0 853.3 0 800 0C746.7 0 693.3 0 640 0C586.7 0 533.3 0 480 0C426.7 0 373.3 0 320 0C266.7 0 213.3 0 160 0C106.7 0 53.3 0 26.7 0L0 0Z" fill="#dcedb5"></path><path d="M0 11L26.7 10C53.3 9 106.7 7 160 6.8C213.3 6.7 266.7 8.3 320 7.5C373.3 6.7 426.7 3.3 480 4C533.3 4.7 586.7 9.3 640 9.5C693.3 9.7 746.7 5.3 800 3.8C853.3 2.3 906.7 3.7 933.3 4.3L960 5L960 0L933.3 0C906.7 0 853.3 0 800 0C746.7 0 693.3 0 640 0C586.7 0 533.3 0 480 0C426.7 0 373.3 0 320 0C266.7 0 213.3 0 160 0C106.7 0 53.3 0 26.7 0L0 0Z" fill="#dfefb9"></path></svg>