<svg id="visual" viewBox="0 0 960 100" width="960" height="100" xmlns="http://www.w3.org/2000/svg" xmlns:xlink="http://www.w3.org/1999/xlink" version="1.1"><path d="M0 28L26.7 26.8C53.3 25.7 106.7 23.3 160 35C213.3 46.7 266.7 72.3 320 80.8C373.3 89.3 426.7 80.7 480 69C533.3 57.3 586.7 42.7 640 41.3C693.3 40 746.7 52 800 53.8C853.3 55.7 906.7 47.3 933.3 43.2L960 39L960 0L933.3 0C906.7 0 853.3 0 800 0C746.7 0 693.3 0 640 0C586.7 0 533.3 0 480 0C426.7 0 373.3 0 320 0C266.7 0 213.3 0 160 0C106.7 0 53.3 0 26.7 0L0 0Z" fill="#c1d790"></path><path d="M0 41L26.7 35.3C53.3 29.7 106.7 18.3 160 13.2C213.3 8 266.7 9 320 12.2C373.3 15.3 426.7 20.7 480 21C533.3 21.3 586.7 16.7 640 26.5C693.3 36.3 746.7 60.7 800 73.7C853.3 86.7 906.7 88.3 933.3 89.2L960 90L960 0L933.3 0C906.7 0 853.3 0 800 0C746.7 0 693.3 0 640 0C586.7 0 533.3 0 480 0C426.7 0 373.3 0 320 0C266.7 0 213.3 0 160 0C106.7 0 53.3 0 26.7 0L0 0Z" fill="#c4d994"></path><path d="M0 31L26.7 37.5C53.3 44 106.7 57 160 52.8C213.3 48.7 266.7 27.3 320 18C373.3 8.7 426.7 11.3 480 20.7C533.3 30 586.7 46 640 53.5C693.3 61 746.7 60 800 51.5C853.3 43 906.7 27 933.3 19L960 11L960 0L933.3 0C906.7 0 853.3 0 800 0C746.7 0 693.3 0 640 0C586.7 0 533.3 0 480 0C426.7 0 373.3 0 320 0C266.7 0 213.3 0 160 0C106.7 0 53.3 0 26.7 0L0 0Z" fill="#c6db97"></path><path d="M0 12L26.7 18C53.3 24 106.7 36 160 37.2C213.3 38.3 266.7 28.7 320 23.8C373.3 19 426.7 19 480 19C533.3 19 586.7 19 640 19.8C693.3 20.7 746.7 22.3 800 31.5C853.3 40.7 906.7 57.3 933.3 65.7L960 74L960 0L933.3 0C906.7 0 853.3 0 800 0C746.7 0 693.3 0 640 0C586.7 0 533.3 0 480 0C426.7 0 373.3 0 320 0C266.7 0 213.3 0 160 0C106.7 0 53.3 0 26.7 0L0 0Z" fill="#c9de9b"></path><path d="M0 9L26.7 12.3C53.3 15.7 106.7 22.3 160 22.3C213.3 22.3 266.7 15.7 320 11.8C373.3 8 426.7 7 480 15.5C533.3 24 586.7 42 640 43.7C693.3 45.3 746.7 30.7 800 28.3C853.3 26 906.7 36 933.3 41L960 46L960 0L933.3 0C906.7 0 853.3 0 800 0C746.7 0 693.3 0 640 0C586.7 0 533.3 0 480 0C426.7 0 373.3 0 320 0C266.7 0 213.3 0 160 0C106.7 0 53.3 0 26.7 0L0 0Z" fill="#cce09f"></path><path d="M0 32L26.7 34.3C53.3 36.7 106.7 41.3 160 40.2C213.3 39 266.7 32 320 25.7C373.3 19.3 426.7 13.7 480 16.7C533.3 19.7 586.7 31.3 640 38.3C693.3 45.3 746.7 47.7 800 41.5C853.3 35.3 906.7 20.7 933.3 13.3L960 6L960 0L933.3 0C906.7 0 853.3 0 800 0C746.7 0 693.3 0 640 0C586.7 0 533.3 0 480 0C426.7 0 373.3 0 320 0C266.7 0 213.3 0 160 0C106.7 0 53.3 0 26.7 0L0 0Z" fill="#cfe2a2"></path><path d="M0 44L26.7 40.7C53.3 37.3 106.7 30.7 160 28.7C213.3 26.7 266.7 29.3 320 26C373.3 22.7 426.7 13.3 480 15.3C533.3 17.3 586.7 30.7 640 36.3C693.3 42 746.7 40 800 39.7C853.3 39.3 906.7 40.7 933.3 41.3L960 42L960 0L933.3 0C906.7 0 853.3 0 800 0C746.7 0 693.3 0 640 0C586.7 0 533.3 0 480 0C426.7 0 373.3 0 320 0C266.7 0 213.3 0 160 0C106.7 0 53.3 0 26.7 0L0 0Z" fill="#d1e4a6"></path><path d="M0 34L26.7 33C53.3 32 106.7 30 160 31.2C213.3 32.3 266.7 36.7 320 34.2C373.3 31.7 426.7 22.3 480 16C533.3 9.7 586.7 6.3 640 4.2C693.3 2 746.7 1 800 3.3C853.3 5.7 906.7 11.3 933.3 14.2L960 17L960 0L933.3 0C906.7 0 853.3 0 800 0C746.7 0 693.3 0 640 0C586.7 0 533.3 0 480 0C426.7 0 373.3 0 320 0C266.7 0 213.3 0 160 0C106.7 0 53.3 0 26.7 0L0 0Z" fill="#d4e6aa"></path><path d="M0 10L26.7 12C53.3 14 106.7 18 160 18.5C213.3 19 266.7 16 320 12.3C373.3 8.7 426.7 4.3 480 2.7C533.3 1 586.7 2 640 3.2C693.3 4.3 746.7 5.7 800 9.5C853.3 13.3 906.7 19.7 933.3 22.8L960 26L960 0L933.3 0C906.7 0 853.3 0 800 0C746.7 0 693.3 0 640 0C586.7 0 533.3 0 480 0C426.7 0 373.3 0 320 0C266.7 0 213.3 0 160 0C106.7 0 53.3 0 26.7 0L0 0Z" fill="#d7e8ae"></path><path d="M0 18L26.7 18C53.3 18 106.7 18 160 17.8C213.3 17.7 266.7 17.3 320 17.3C373.3 17.3 426.7 17.7 480 15.8C533.3 14 586.7 10 640 11.2C693.3 12.3 746.7 18.7 800 22.2C853.3 25.7 906.7 26.3 933.3 26.7L960 27L960 0L933.3 0C906.7 0 853.3 0 800 0C746.7 0 693.3 0 640 0C586.7 0 533.3 0 480 0C426.7 0 373.3 0 320 0C266.7 0 213.3 0 160 0C106.7 0 53.3 0 26.7 0L0 0Z" fill="#daebb1"></path><path d="M0 10L26.7 10.7C53.3 11.3 106.7 12.7 160 11.3C213.3 10 266.7 6 320 5.5C373.3 5 426.7 8 480 8C533.3 8 586.7 5 640 5.8C693.3 6.7 746.7 11.3 800 13.3C853.3 15.3 906.7 14.7 933.3 14.3L960 14L960 0L933.3 0C906.7 0 853.3 0 800 0C746.7 0 693.3 0 640 0C586.7 0 533.3 0 480 0C426.7 0 373.3 0 320 0C266.7 0 213.3 0 160 0C106.7 0 53.3 0 26.7 0L0 0Z" fill="#dcedb5"></path><path d="M0 4L26.7 4.7C53.3 5.3 106.7 6.7 160 7.2C213.3 7.7 266.7 7.3 320 6.8C373.3 6.3 426.7 5.7 480 4.7C533.3 3.7 586.7 2.3 640 2.5C693.3 2.7 746.7 4.3 800 5C853.3 5.7 906.7 5.3 933.3 5.2L960 5L960 0L933.3 0C906.7 0 853.3 0 800 0C746.7 0 693.3 0 640 0C586.7 0 533.3 0 480 0C426.7 0 373.3 0 320 0C266.7 0 213.3 0 160 0C106.7 0 53.3 0 26.7 0L0 0Z" fill="#dfefb9"></path></svg>